<?xml version="1.0" encoding="UTF-8" standalone="no"?>
<!-- Created with Inkscape (http://www.inkscape.org/) -->

<svg
   xmlns:dc="http://purl.org/dc/elements/1.1/"
   xmlns:cc="http://creativecommons.org/ns#"
   xmlns:rdf="http://www.w3.org/1999/02/22-rdf-syntax-ns#"
   xmlns:svg="http://www.w3.org/2000/svg"
   xmlns="http://www.w3.org/2000/svg"
   xmlns:sodipodi="http://sodipodi.sourceforge.net/DTD/sodipodi-0.dtd"
   xmlns:inkscape="http://www.inkscape.org/namespaces/inkscape"
   width="80"
   height="80"
   id="svg5947"
   version="1.1"
   inkscape:version="0.48.3.1 r9886"
   inkscape:export-xdpi="576"
   inkscape:export-ydpi="576">
  <defs
     id="defs5949" />
  <sodipodi:namedview
     id="base"
     pagecolor="#ffffff"
     bordercolor="#666666"
     borderopacity="1.0"
     inkscape:pageopacity="0.0"
     inkscape:pageshadow="2"
     inkscape:zoom="1.979899"
     inkscape:cx="42.979627"
     inkscape:cy="34.800255"
     inkscape:document-units="px"
     inkscape:current-layer="User"
     showgrid="false"
     inkscape:snap-global="false"
     inkscape:window-width="753"
     inkscape:window-height="383"
     inkscape:window-x="771"
     inkscape:window-y="369"
     inkscape:window-maximized="0" />
  <metadata
     id="metadata5952">
    <rdf:RDF>
      <cc:Work
         rdf:about="">
        <dc:format>image/svg+xml</dc:format>
        <dc:type
           rdf:resource="http://purl.org/dc/dcmitype/StillImage" />
        <dc:title></dc:title>
      </cc:Work>
    </rdf:RDF>
  </metadata>
  <g
     inkscape:label="Layer 1"
     inkscape:groupmode="layer"
     id="layer1"
     transform="translate(0,-972.3622)">
    <g
       transform="translate(-172.78441,627.1682)"
       id="User">
      <g
         transform="translate(-296.99359,-114.792)"
         id="Add"
         style="fill:#faffff;fill-opacity:1;opacity:0.3">
        <path
           style="fill:#faffff;fill-rule:evenodd;fill-opacity:1"
           inkscape:connector-curvature="0"
           clip-rule="evenodd"
           d="m 509.778,477.486 c -12.426,0 -22.5,10.072 -22.5,22.5 0,12.426 10.074,22.5 22.5,22.5 12.428,0 22.5,-10.074 22.5,-22.5 0,-12.427 -10.072,-22.5 -22.5,-22.5 z m 11.5,25 c 0,0.549 -0.451,1 -1,1 h -6 c -0.551,0 -1.001,0.449 -1.001,1 v 6 c 0,0.549 -0.45,1 -1,1 h -5 c -0.55,0 -1,-0.451 -1,-1 v -6 c 0,-0.551 -0.45,-1 -1,-1 h -6 c -0.55,0 -1,-0.451 -1,-1 v -5 c 0,-0.551 0.45,-1 1,-1 h 6 c 0.55,0 1,-0.451 1,-1 v -6 c 0,-0.551 0.45,-1 1,-1 h 5 c 0.55,0 1,0.449 1,1 v 6 c 0,0.549 0.45,1 1.001,1 h 6 c 0.549,0 1,0.449 1,1 v 5 z"
           id="path701" />
      </g>
    </g>
  </g>
</svg>
