<?xml version="1.0" encoding="UTF-8" standalone="no"?>
<!-- Created with Inkscape (http://www.inkscape.org/) -->

<svg
   xmlns:dc="http://purl.org/dc/elements/1.1/"
   xmlns:cc="http://creativecommons.org/ns#"
   xmlns:rdf="http://www.w3.org/1999/02/22-rdf-syntax-ns#"
   xmlns:svg="http://www.w3.org/2000/svg"
   xmlns="http://www.w3.org/2000/svg"
   xmlns:sodipodi="http://sodipodi.sourceforge.net/DTD/sodipodi-0.dtd"
   xmlns:inkscape="http://www.inkscape.org/namespaces/inkscape"
   width="80"
   height="80"
   id="svg5947"
   version="1.1"
   inkscape:version="0.48.3.1 r9886"
   inkscape:export-filename="/home/zulu/add_fav.png"
   inkscape:export-xdpi="576"
   inkscape:export-ydpi="576"
   sodipodi:docname="add_fav.svg">
  <defs
     id="defs5949" />
  <sodipodi:namedview
     id="base"
     pagecolor="#ffffff"
     bordercolor="#666666"
     borderopacity="1.0"
     inkscape:pageopacity="0.0"
     inkscape:pageshadow="2"
     inkscape:zoom="1.979899"
     inkscape:cx="11.996343"
     inkscape:cy="34.800255"
     inkscape:document-units="px"
     inkscape:current-layer="User"
     showgrid="false"
     inkscape:snap-global="false"
     inkscape:window-width="753"
     inkscape:window-height="383"
     inkscape:window-x="770"
     inkscape:window-y="368"
     inkscape:window-maximized="0" />
  <metadata
     id="metadata5952">
    <rdf:RDF>
      <cc:Work
         rdf:about="">
        <dc:format>image/svg+xml</dc:format>
        <dc:type
           rdf:resource="http://purl.org/dc/dcmitype/StillImage" />
        <dc:title />
      </cc:Work>
    </rdf:RDF>
  </metadata>
  <g
     inkscape:label="Layer 1"
     inkscape:groupmode="layer"
     id="layer1"
     transform="translate(0,-972.3622)">
    <g
       transform="translate(-172.78441,627.1682)"
       id="User">
      <g
         transform="translate(-357.18509,125.9025)"
         id="Plus"
         style="fill:#ffffff;fill-opacity:1;opacity:0.5">
        <path
           style="fill:#ffffff;fill-opacity:1"
           inkscape:connector-curvature="0"
           d="m 592.469,255.072 c 0,-0.773 -0.635,-1.406 -1.406,-1.406 H 577 c -0.773,0 -1.406,-0.634 -1.406,-1.406 v -14.062 c 0,-0.773 -0.633,-1.406 -1.406,-1.406 h -8.439 c -0.773,0 -1.406,0.633 -1.406,1.406 v 14.062 c 0,0.772 -0.633,1.406 -1.406,1.406 h -14.061 c -0.773,0 -1.406,0.633 -1.406,1.406 v 8.438 c 0,0.773 0.633,1.406 1.406,1.406 h 14.061 c 0.773,0 1.406,0.633 1.406,1.406 v 14.063 c 0,0.773 0.633,1.406 1.406,1.406 h 8.439 c 0.773,0 1.406,-0.633 1.406,-1.406 v -14.063 c 0,-0.773 0.633,-1.406 1.406,-1.406 h 14.063 c 0.771,0 1.406,-0.633 1.406,-1.406 v -8.438 z"
           id="path675" />
      </g>
    </g>
  </g>
</svg>
