<?xml version="1.0" encoding="UTF-8" standalone="no"?>
<!-- Created with Inkscape (http://www.inkscape.org/) -->

<svg
   xmlns:dc="http://purl.org/dc/elements/1.1/"
   xmlns:cc="http://creativecommons.org/ns#"
   xmlns:rdf="http://www.w3.org/1999/02/22-rdf-syntax-ns#"
   xmlns:svg="http://www.w3.org/2000/svg"
   xmlns="http://www.w3.org/2000/svg"
   xmlns:sodipodi="http://sodipodi.sourceforge.net/DTD/sodipodi-0.dtd"
   xmlns:inkscape="http://www.inkscape.org/namespaces/inkscape"
   width="80"
   height="80"
   id="svg5947"
   version="1.1"
   inkscape:version="0.48.3.1 r9886"
   inkscape:export-xdpi="576"
   inkscape:export-ydpi="576">
  <defs
     id="defs5949" />
  <sodipodi:namedview
     id="base"
     pagecolor="#ffffff"
     bordercolor="#666666"
     borderopacity="1.0"
     inkscape:pageopacity="0.0"
     inkscape:pageshadow="2"
     inkscape:zoom="1.979899"
     inkscape:cx="-69.871953"
     inkscape:cy="34.800255"
     inkscape:document-units="px"
     inkscape:current-layer="User"
     showgrid="false"
     inkscape:snap-global="false"
     inkscape:window-width="753"
     inkscape:window-height="383"
     inkscape:window-x="779"
     inkscape:window-y="193"
     inkscape:window-maximized="0" />
  <metadata
     id="metadata5952">
    <rdf:RDF>
      <cc:Work
         rdf:about="">
        <dc:format>image/svg+xml</dc:format>
        <dc:type
           rdf:resource="http://purl.org/dc/dcmitype/StillImage" />
        <dc:title></dc:title>
      </cc:Work>
    </rdf:RDF>
  </metadata>
  <g
     inkscape:label="Layer 1"
     inkscape:groupmode="layer"
     id="layer1"
     transform="translate(0,-972.3622)">
    <g
       transform="translate(-172.78441,627.1682)"
       id="User">
      <g
         transform="translate(-477.68773,6.9816898)"
         id="Edit"
         style="fill:#ffffff;fill-opacity:1;opacity:0.3">
        <path
           style="fill:#ffffff;fill-opacity:1"
           inkscape:connector-curvature="0"
           d="m 711.824,370.929 -14.471,-14.47 c -0.994,-0.995 -2.623,-0.995 -3.617,0 l -20.199,20.198 c -0.332,0.332 -0.678,0.98 -0.77,1.439 l -4.377,21.957 c -0.092,0.459 0.205,0.746 0.662,0.635 l 21.141,-5.137 c 0.457,-0.111 1.102,-0.475 1.432,-0.805 l 20.199,-20.199 c 0.996,-0.995 0.996,-2.622 0,-3.618 z m -23.615,22.974 -10.988,2.633 c -0.455,0.109 -1.1,-0.072 -1.432,-0.404 l -3.186,-3.186 c -0.332,-0.332 -0.529,-0.98 -0.439,-1.441 l 2.24,-11.434 c 0.09,-0.461 0.436,-0.566 0.766,-0.234 l 13.266,13.266 c 0.332,0.33 0.23,0.691 -0.227,0.8 z"
           id="path543" />
      </g>
    </g>
  </g>
</svg>
