<?xml version="1.0" encoding="UTF-8" standalone="no"?>
<!-- Created with Inkscape (http://www.inkscape.org/) -->

<svg
   xmlns:dc="http://purl.org/dc/elements/1.1/"
   xmlns:cc="http://creativecommons.org/ns#"
   xmlns:rdf="http://www.w3.org/1999/02/22-rdf-syntax-ns#"
   xmlns:svg="http://www.w3.org/2000/svg"
   xmlns="http://www.w3.org/2000/svg"
   xmlns:sodipodi="http://sodipodi.sourceforge.net/DTD/sodipodi-0.dtd"
   xmlns:inkscape="http://www.inkscape.org/namespaces/inkscape"
   width="512"
   height="512"
   id="svg2"
   version="1.1"
   inkscape:version="0.48.4 r9939">
  <defs
     id="defs4" />
  <sodipodi:namedview
     id="base"
     pagecolor="#4f5a64"
     bordercolor="#666666"
     borderopacity="1.0"
     inkscape:pageopacity="0"
     inkscape:pageshadow="2"
     inkscape:zoom="0.9899495"
     inkscape:cx="286.26772"
     inkscape:cy="273.6213"
     inkscape:document-units="px"
     inkscape:current-layer="layer1"
     showgrid="false"
     inkscape:window-width="997"
     inkscape:window-height="847"
     inkscape:window-x="601"
     inkscape:window-y="24"
     inkscape:window-maximized="0" />
  <metadata
     id="metadata7">
    <rdf:RDF>
      <cc:Work
         rdf:about="">
        <dc:format>image/svg+xml</dc:format>
        <dc:type
           rdf:resource="http://purl.org/dc/dcmitype/StillImage" />
        <dc:title />
      </cc:Work>
    </rdf:RDF>
  </metadata>
  <g
     inkscape:label="Layer 1"
     inkscape:groupmode="layer"
     id="layer1"
     transform="translate(0,-540.36218)">
    <g
       id="g3003">
      <path
         id="path3839"
         transform="translate(0,540.36218)"
         d="M 195.90625 46.90625 C 172.30989 46.90625 149.62728 50.79511 128.46875 58 C 210.87724 86.04867 270.15625 164.10241 270.15625 256 C 270.15625 347.89759 210.87724 425.95133 128.46875 454 C 149.62728 461.20492 172.30989 465.09375 195.90625 465.09375 C 311.38986 465.09375 405 371.48361 405 256 C 405 140.51639 311.38986 46.90625 195.90625 46.90625 z M 371.09375 224.75 L 373.625 224.75 C 374.23166 224.75005 374.53124 225.04963 374.53125 225.65625 L 374.53125 246.40625 C 375.61457 244.62961 377.1629 243.22753 379.15625 242.1875 C 381.14957 241.1042 383.37373 240.56253 385.84375 240.5625 C 395.50705 240.56253 400.34371 246.65503 400.34375 258.875 C 400.38705 261.30168 400.1258 263.65293 399.5625 265.90625 C 399.04247 268.11626 398.18205 270.06 396.96875 271.75 C 395.75539 273.44 394.20705 274.78458 392.34375 275.78125 C 390.52372 276.82125 388.35706 277.34375 385.84375 277.34375 C 380.64373 277.34375 376.87124 275.13875 374.53125 270.71875 L 374.53125 275.78125 C 374.53124 276.38791 374.23166 276.6875 373.625 276.6875 L 371.09375 276.6875 C 370.48708 276.6875 370.18749 276.38791 370.1875 275.78125 L 370.1875 225.65625 C 370.18749 225.04963 370.48708 224.75005 371.09375 224.75 z M 347.5 240.625 C 349.92665 240.62503 352.03581 241.03962 353.8125 241.90625 C 355.58914 242.77295 357.11831 244.0792 358.375 245.8125 C 360.58497 248.88919 361.68747 252.9996 361.6875 258.15625 C 361.68747 258.7196 361.6683 259.16543 361.625 259.46875 C 361.62497 259.7721 361.53622 259.99501 361.40625 260.125 C 361.27622 260.25501 361.06538 260.33168 360.71875 260.375 C 360.41539 260.37501 359.95039 260.37501 359.34375 260.375 L 337.375 260.375 C 337.33166 262.54168 337.57374 264.46626 338.09375 266.15625 C 338.65707 267.80292 339.45999 269.18584 340.5 270.3125 C 341.53999 271.43917 342.75749 272.29958 344.1875 272.90625 C 345.66082 273.51292 347.28582 273.84375 349.0625 273.84375 C 350.79581 273.84375 352.42081 273.67833 353.9375 273.375 C 355.45414 273.02833 356.85622 272.48667 358.15625 271.75 C 358.71955 271.49 358.99997 271.65542 359 272.21875 L 359 275.125 C 358.99997 275.515 358.78914 275.81458 358.3125 276.03125 C 356.88247 276.59458 355.37247 277.02125 353.8125 277.28125 C 352.25248 277.58458 350.56998 277.71875 348.75 277.71875 C 343.41999 277.71875 339.38624 276.20166 336.65625 273.125 C 333.92625 270.005 332.5625 265.30251 332.5625 259.0625 C 332.5625 253.55919 333.92625 249.13002 336.65625 245.75 C 339.51624 242.3267 343.12332 240.62503 347.5 240.625 z M 275.96875 241.53125 L 278.96875 241.53125 C 279.48874 241.53128 279.86499 241.83087 280.125 242.4375 L 289.34375 272.0625 C 290.94707 267.07917 292.51456 262.20418 294.03125 257.4375 C 295.59123 252.62752 297.17789 247.73336 298.78125 242.75 C 298.99789 241.9267 299.50122 241.53128 300.28125 241.53125 L 303.34375 241.53125 C 304.16705 241.53128 304.68955 241.9267 304.90625 242.75 L 313.9375 272.0625 C 315.58413 266.94917 317.13954 262.01668 318.65625 257.25 C 320.2162 252.48335 321.82204 247.55086 323.46875 242.4375 C 323.55537 242.17753 323.72078 241.95462 323.9375 241.78125 C 324.15412 241.60795 324.3962 241.53128 324.65625 241.53125 L 327.25 241.53125 C 327.50995 241.53128 327.7137 241.62712 327.84375 241.84375 C 327.9737 242.01712 327.99286 242.22087 327.90625 242.4375 L 316.84375 275.96875 C 316.71371 276.44541 316.37579 276.6875 315.8125 276.6875 L 311.96875 276.6875 C 311.44871 276.6875 311.1108 276.44541 310.9375 275.96875 L 301.71875 246.0625 C 300.11539 251.08919 298.50956 256.09127 296.90625 261.03125 C 295.3029 265.97126 293.69706 270.92292 292.09375 275.90625 C 291.96373 276.42625 291.55623 276.6875 290.90625 276.6875 L 287.34375 276.6875 C 287.0404 276.6875 286.77915 276.64916 286.5625 276.5625 C 286.38915 276.47583 286.2429 276.25291 286.15625 275.90625 L 275.3125 242.4375 C 275.22583 242.22087 275.245 242.01712 275.375 241.84375 C 275.505 241.62712 275.70875 241.53128 275.96875 241.53125 z M 385.0625 244.25 C 383.28581 244.25003 381.74957 244.65753 380.40625 245.4375 C 379.10624 246.17419 378.0229 247.18794 377.15625 248.53125 C 376.28957 249.87461 375.62082 251.44211 375.1875 253.21875 C 374.75416 254.99544 374.53124 256.88168 374.53125 258.875 C 374.53124 260.82501 374.79249 262.71126 375.3125 264.53125 C 375.87582 266.30792 376.62124 267.87542 377.53125 269.21875 C 378.48457 270.56209 379.58707 271.64542 380.84375 272.46875 C 382.14373 273.24875 383.54581 273.625 385.0625 273.625 C 387.05581 273.625 388.75039 273.22958 390.09375 272.40625 C 391.48039 271.53959 392.58289 270.41792 393.40625 269.03125 C 394.22955 267.64459 394.80955 266.05792 395.15625 264.28125 C 395.54622 262.50459 395.69955 260.69501 395.65625 258.875 C 395.69955 257.05502 395.54622 255.29585 395.15625 253.5625 C 394.80955 251.82919 394.22955 250.26169 393.40625 248.875 C 392.58289 247.48836 391.48039 246.38586 390.09375 245.5625 C 388.75039 244.69586 387.05581 244.25003 385.0625 244.25 z M 347.78125 244.3125 C 344.66123 244.31253 342.10624 245.61878 340.15625 248.21875 C 339.37624 249.38877 338.73874 250.73336 338.21875 252.25 C 337.69874 253.76669 337.41833 255.22627 337.375 256.65625 L 356.875 256.65625 C 356.87497 254.8796 356.69039 253.32419 356.34375 251.9375 C 355.99706 250.55086 355.45539 249.28294 354.71875 248.15625 C 353.11539 245.59961 350.81456 244.31253 347.78125 244.3125 z "
         style="fill:#c0c0c0;fill-opacity:1;stroke:none" />
      <flowRoot
         transform="translate(44.655019,548.52468)"
         style="font-size:65px;font-style:normal;font-variant:normal;font-weight:normal;font-stretch:normal;line-height:125%;letter-spacing:0px;word-spacing:0px;fill:#000000;fill-opacity:1;stroke:none;font-family:NanumGothic;-inkscape-font-specification:NanumGothic"
         id="flowRoot3877"
         xml:space="preserve"><flowRegion
           id="flowRegion3879"><rect
             style="font-size:65px;font-style:normal;font-variant:normal;font-weight:normal;font-stretch:normal;font-family:NanumGothic;-inkscape-font-specification:NanumGothic"
             y="200.87302"
             x="56.568542"
             height="96.974648"
             width="240.41631"
             id="rect3881" /></flowRegion><flowPara
           style="font-size:65px;font-style:normal;font-variant:normal;font-weight:normal;font-stretch:normal;fill:#c0c0c0;fill-opacity:1;font-family:NanumGothic;-inkscape-font-specification:NanumGothic"
           id="flowPara3883">night</flowPara></flowRoot>    </g>
  </g>
</svg>
