<?xml version="1.0" encoding="UTF-8" standalone="no"?>
<!-- Created with Inkscape (http://www.inkscape.org/) -->

<svg
   xmlns:dc="http://purl.org/dc/elements/1.1/"
   xmlns:cc="http://creativecommons.org/ns#"
   xmlns:rdf="http://www.w3.org/1999/02/22-rdf-syntax-ns#"
   xmlns:svg="http://www.w3.org/2000/svg"
   xmlns="http://www.w3.org/2000/svg"
   xmlns:sodipodi="http://sodipodi.sourceforge.net/DTD/sodipodi-0.dtd"
   xmlns:inkscape="http://www.inkscape.org/namespaces/inkscape"
   width="80"
   height="80"
   id="svg5947"
   version="1.1"
   inkscape:version="0.48.3.1 r9886"
   inkscape:export-xdpi="576"
   inkscape:export-ydpi="576">
  <defs
     id="defs5949" />
  <sodipodi:namedview
     id="base"
     pagecolor="#ffffff"
     bordercolor="#666666"
     borderopacity="1.0"
     inkscape:pageopacity="0.0"
     inkscape:pageshadow="2"
     inkscape:zoom="1.979899"
     inkscape:cx="-69.871953"
     inkscape:cy="34.800255"
     inkscape:document-units="px"
     inkscape:current-layer="User"
     showgrid="false"
     inkscape:snap-global="false"
     inkscape:window-width="753"
     inkscape:window-height="383"
     inkscape:window-x="779"
     inkscape:window-y="193"
     inkscape:window-maximized="0" />
  <metadata
     id="metadata5952">
    <rdf:RDF>
      <cc:Work
         rdf:about="">
        <dc:format>image/svg+xml</dc:format>
        <dc:type
           rdf:resource="http://purl.org/dc/dcmitype/StillImage" />
        <dc:title></dc:title>
      </cc:Work>
    </rdf:RDF>
  </metadata>
  <g
     inkscape:label="Layer 1"
     inkscape:groupmode="layer"
     id="layer1"
     transform="translate(0,-972.3622)">
    <g
       transform="translate(-172.78441,627.1682)"
       id="User">
      <g
         transform="translate(-177.86984,65.938)"
         id="Compose_1_"
         style="fill:#ffffff;fill-opacity:1;opacity:0.3">
        <g
           id="g860"
           style="fill:#ffffff;fill-opacity:1">
          <path
             style="fill:#ffffff;fill-opacity:1"
             inkscape:connector-curvature="0"
             d="m 389.352,328.205 c -0.547,0.138 -0.854,-0.188 -0.68,-0.725 l 1.619,-4.997 c 0.174,-0.538 0.645,-1.304 1.043,-1.703 l 16.438,-16.438 c 0.398,-0.399 1.053,-0.399 1.451,0 l 3.633,3.632 c 0.398,0.399 0.398,1.053 0,1.452 l -16.438,16.438 c -0.4,0.399 -1.176,0.84 -1.723,0.979 l -5.343,1.362 z"
             id="path862" />
          <path
             style="fill:#ffffff;fill-opacity:1"
             inkscape:connector-curvature="0"
             d="m 397.869,327.317 c -0.664,0.664 -1.762,1.288 -2.668,1.519 l -5.346,1.361 c -0.248,0.062 -0.498,0.094 -0.742,0.094 -0.838,0 -1.592,-0.373 -2.064,-1.024 -0.488,-0.674 -0.609,-1.556 -0.33,-2.42 l 1.619,-4.996 c 0.275,-0.852 0.91,-1.89 1.545,-2.523 l 13.197,-13.197 v -6.905 c 0,-0.564 -0.465,-1.027 -1.027,-1.027 h -19.518 l -14.381,14.38 v 26.707 c 0,0.564 0.463,1.027 1.027,1.027 h 32.869 c 0.564,0 1.027,-0.462 1.027,-1.027 v -17.177 l -5.208,5.208 z m -15.334,-14.738 h -12.326 l 12.326,-12.326 v 12.326 z"
             id="path864" />
        </g>
      </g>
    </g>
  </g>
</svg>
