<?xml version="1.0" encoding="UTF-8" standalone="no"?>
<!-- Created with Inkscape (http://www.inkscape.org/) -->

<svg
   xmlns:dc="http://purl.org/dc/elements/1.1/"
   xmlns:cc="http://creativecommons.org/ns#"
   xmlns:rdf="http://www.w3.org/1999/02/22-rdf-syntax-ns#"
   xmlns:svg="http://www.w3.org/2000/svg"
   xmlns="http://www.w3.org/2000/svg"
   xmlns:sodipodi="http://sodipodi.sourceforge.net/DTD/sodipodi-0.dtd"
   xmlns:inkscape="http://www.inkscape.org/namespaces/inkscape"
   width="80"
   height="80"
   id="svg5947"
   version="1.1"
   inkscape:version="0.48.4 r9939">
  <defs
     id="defs5949" />
  <sodipodi:namedview
     id="base"
     pagecolor="#ffffff"
     bordercolor="#666666"
     borderopacity="1.0"
     inkscape:pageopacity="0.0"
     inkscape:pageshadow="2"
     inkscape:zoom="1.979899"
     inkscape:cx="-158.76538"
     inkscape:cy="34.800255"
     inkscape:document-units="px"
     inkscape:current-layer="User"
     showgrid="false"
     inkscape:snap-global="false"
     inkscape:window-width="1535"
     inkscape:window-height="876"
     inkscape:window-x="65"
     inkscape:window-y="24"
     inkscape:window-maximized="1" />
  <metadata
     id="metadata5952">
    <rdf:RDF>
      <cc:Work
         rdf:about="">
        <dc:format>image/svg+xml</dc:format>
        <dc:type
           rdf:resource="http://purl.org/dc/dcmitype/StillImage" />
        <dc:title></dc:title>
      </cc:Work>
    </rdf:RDF>
  </metadata>
  <g
     inkscape:label="Layer 1"
     inkscape:groupmode="layer"
     id="layer1"
     transform="translate(0,-972.3622)">
    <g
       transform="translate(-172.78441,627.1682)"
       id="User">
      <path
         style="opacity:0.50000000000000000;fill:#ffffff;fill-opacity:1;stroke:#000000;stroke-width:2;stroke-opacity:1;stroke-miterlimit:4;stroke-dasharray:none"
         inkscape:connector-curvature="0"
         d="m 221.47905,392.21295 c -0.63649,0 -0.65811,-0.36216 -0.65811,-1.26487 0,-1.11082 0.14594,-1.71758 0.14594,-1.71758 1.90001,0 4.77435,-3.17839 5.70138,-6.10273 0.52027,-1.6473 3.46218,-1.9473 3.46218,-6.31083 0,-3.82435 -1.6919,-2.76623 -1.6919,-3.05137 0,-0.28514 0,-4.15948 0,-6.43516 0,-4.22029 -3.76759,-12.54195 -15.65413,-12.54195 -11.88654,0 -15.65412,8.32166 -15.65412,12.54195 0,2.27568 0,6.15002 0,6.43516 0,0.28514 -1.6919,-0.77298 -1.6919,3.05137 0,4.36353 2.94191,4.66353 3.46218,6.31083 0.92703,2.92434 3.80137,6.10273 5.70138,6.10273 0,0 0.14594,0.60676 0.14594,1.71758 0,0.90271 -0.023,1.26487 -0.65811,1.26487 -10.33113,0 -17.81359,10.91897 -17.81359,14.40547 0,4.45813 0,8.98112 0,8.98112 h 26.50822 26.50823 c 0,0 0,-4.52434 0,-8.98112 -0.001,-3.4865 -7.48383,-14.40547 -17.81359,-14.40547 z"
         id="path5525"
         inkscape:export-filename="/home/zulu/profile.png"
         inkscape:export-xdpi="90"
         inkscape:export-ydpi="90" />
    </g>
  </g>
</svg>
