<?xml version="1.0" encoding="UTF-8" standalone="no"?>
<!-- Created with Inkscape (http://www.inkscape.org/) -->

<svg
   xmlns:dc="http://purl.org/dc/elements/1.1/"
   xmlns:cc="http://creativecommons.org/ns#"
   xmlns:rdf="http://www.w3.org/1999/02/22-rdf-syntax-ns#"
   xmlns:svg="http://www.w3.org/2000/svg"
   xmlns="http://www.w3.org/2000/svg"
   xmlns:sodipodi="http://sodipodi.sourceforge.net/DTD/sodipodi-0.dtd"
   xmlns:inkscape="http://www.inkscape.org/namespaces/inkscape"
   width="80"
   height="80"
   id="svg5947"
   version="1.1"
   inkscape:version="0.48.3.1 r9886"
   inkscape:export-filename="/home/zulu/remove_fav.png"
   inkscape:export-xdpi="576"
   inkscape:export-ydpi="576"
   sodipodi:docname="remove_fav.svg">
  <defs
     id="defs5949" />
  <sodipodi:namedview
     id="base"
     pagecolor="#ffffff"
     bordercolor="#666666"
     borderopacity="1.0"
     inkscape:pageopacity="0.0"
     inkscape:pageshadow="2"
     inkscape:zoom="1.979899"
     inkscape:cx="29.378351"
     inkscape:cy="34.800255"
     inkscape:document-units="px"
     inkscape:current-layer="User"
     showgrid="false"
     inkscape:snap-global="false"
     inkscape:window-width="753"
     inkscape:window-height="383"
     inkscape:window-x="819"
     inkscape:window-y="351"
     inkscape:window-maximized="0" />
  <metadata
     id="metadata5952">
    <rdf:RDF>
      <cc:Work
         rdf:about="">
        <dc:format>image/svg+xml</dc:format>
        <dc:type
           rdf:resource="http://purl.org/dc/dcmitype/StillImage" />
        <dc:title />
      </cc:Work>
    </rdf:RDF>
  </metadata>
  <g
     inkscape:label="Layer 1"
     inkscape:groupmode="layer"
     id="layer1"
     transform="translate(0,-972.3622)">
    <g
       transform="translate(-172.78441,627.1682)"
       id="User">
      <g
         transform="translate(-357.18434,65.939)"
         id="Cross"
         style="fill:#ffffff;fill-opacity:1;opacity:0.5">
        <path
           style="fill:#ffffff;fill-opacity:1"
           inkscape:connector-curvature="0"
           d="m 579.088,319.255 12.91,-12.908 c 0.627,-0.627 0.627,-1.654 0,-2.281 l -6.84,-6.842 c -0.627,-0.625 -1.652,-0.625 -2.279,0 l -12.91,12.91 -12.91,-12.91 c -0.627,-0.625 -1.654,-0.625 -2.281,0 l -6.84,6.842 c -0.625,0.627 -0.625,1.654 0,2.281 l 12.91,12.908 -12.908,12.908 c -0.627,0.627 -0.627,1.654 0,2.281 l 6.84,6.842 c 0.627,0.625 1.654,0.625 2.281,0 l 12.908,-12.91 12.908,12.91 c 0.627,0.625 1.652,0.625 2.279,0 l 6.84,-6.842 c 0.627,-0.627 0.627,-1.654 0,-2.281 l -12.908,-12.908 z"
           id="path672" />
      </g>
    </g>
  </g>
</svg>
