<?xml version="1.0" encoding="UTF-8" standalone="no"?>
<!-- Created with Inkscape (http://www.inkscape.org/) -->

<svg
   xmlns:dc="http://purl.org/dc/elements/1.1/"
   xmlns:cc="http://creativecommons.org/ns#"
   xmlns:rdf="http://www.w3.org/1999/02/22-rdf-syntax-ns#"
   xmlns:svg="http://www.w3.org/2000/svg"
   xmlns="http://www.w3.org/2000/svg"
   xmlns:sodipodi="http://sodipodi.sourceforge.net/DTD/sodipodi-0.dtd"
   xmlns:inkscape="http://www.inkscape.org/namespaces/inkscape"
   width="80"
   height="80"
   id="svg5947"
   version="1.1"
   inkscape:version="0.48.3.1 r9886"
   inkscape:export-filename="/home/zulu/remove_fav.png"
   inkscape:export-xdpi="576"
   inkscape:export-ydpi="576"
   sodipodi:docname="remove_fav.svg">
  <defs
     id="defs5949" />
  <sodipodi:namedview
     id="base"
     pagecolor="#ffffff"
     bordercolor="#666666"
     borderopacity="1.0"
     inkscape:pageopacity="0.0"
     inkscape:pageshadow="2"
     inkscape:zoom="1.979899"
     inkscape:cx="19.02147"
     inkscape:cy="34.800255"
     inkscape:document-units="px"
     inkscape:current-layer="User"
     showgrid="false"
     inkscape:snap-global="false"
     inkscape:window-width="753"
     inkscape:window-height="383"
     inkscape:window-x="819"
     inkscape:window-y="351"
     inkscape:window-maximized="0" />
  <metadata
     id="metadata5952">
    <rdf:RDF>
      <cc:Work
         rdf:about="">
        <dc:format>image/svg+xml</dc:format>
        <dc:type
           rdf:resource="http://purl.org/dc/dcmitype/StillImage" />
        <dc:title></dc:title>
      </cc:Work>
    </rdf:RDF>
  </metadata>
  <g
     inkscape:label="Layer 1"
     inkscape:groupmode="layer"
     id="layer1"
     transform="translate(0,-972.3622)">
    <g
       transform="translate(-172.78441,627.1682)"
       id="User">
      <g
         transform="translate(-55.46259,-54.2985)"
         id="Block_user"
         style="fill:#ffffff;fill-opacity:1;opacity:0.50000000000000000">
        <g
           id="g5511"
           style="fill:#ffffff;fill-opacity:1">
          <path
             style="fill:#ffffff;fill-opacity:1"
             inkscape:connector-curvature="0"
             d="m 278.29,442.547 c -0.416,0 -0.43,-1.061 -0.43,-1.65 0,-0.725 0.095,-1.125 0.095,-1.125 1.242,0 3.119,-2.072 3.723,-3.982 0.342,-1.076 2.262,-1.271 2.262,-4.121 0,-2.496 -1.104,-1.805 -1.104,-1.992 0,-0.186 0,-2.714 0,-4.201 0,-2.756 -2.46,-8.19 -10.223,-8.19 -7.763,0 -10.222,5.435 -10.222,8.19 0,1.487 0,4.016 0,4.201 0,0.188 -1.105,-0.504 -1.105,1.992 0,2.85 1.92,3.045 2.26,4.121 0.352,1.111 1.135,2.275 1.973,3.055 0.266,0.195 0.529,0.391 0.781,0.604 0.342,0.203 0.674,0.324 0.971,0.324 0,0 0.054,0.232 0.08,0.66 2.439,2.523 3.949,5.951 3.949,9.729 0,2.766 -0.816,5.34 -2.204,7.514 h 3.518 18.134 c 0,0 0,-3.635 0,-6.545 -0.002,-2.277 -5.713,-8.584 -12.458,-8.584 z"
             id="path5513" />
          <path
             style="fill:#ffffff;fill-opacity:1"
             inkscape:connector-curvature="0"
             d="m 257.285,438.621 c -6.373,0 -11.539,5.166 -11.539,11.539 0,6.373 5.166,11.539 11.539,11.539 6.374,0 11.541,-5.166 11.541,-11.539 0,-6.373 -5.167,-11.539 -11.541,-11.539 z m 7.213,11.539 c 0,1.203 -0.3,2.334 -0.822,3.33 l -9.722,-9.721 c 0.999,-0.523 2.13,-0.822 3.331,-0.822 3.978,0 7.213,3.237 7.213,7.213 z m -14.424,0 c 0,-1.201 0.299,-2.334 0.82,-3.33 l 9.723,9.721 c -0.998,0.523 -2.13,0.822 -3.332,0.822 -3.976,0 -7.211,-3.236 -7.211,-7.213 z"
             id="path5515" />
        </g>
      </g>
    </g>
  </g>
</svg>
