<?xml version="1.0" encoding="UTF-8" standalone="no"?>
<!-- Created with Inkscape (http://www.inkscape.org/) -->

<svg
   xmlns:dc="http://purl.org/dc/elements/1.1/"
   xmlns:cc="http://creativecommons.org/ns#"
   xmlns:rdf="http://www.w3.org/1999/02/22-rdf-syntax-ns#"
   xmlns:svg="http://www.w3.org/2000/svg"
   xmlns="http://www.w3.org/2000/svg"
   xmlns:sodipodi="http://sodipodi.sourceforge.net/DTD/sodipodi-0.dtd"
   xmlns:inkscape="http://www.inkscape.org/namespaces/inkscape"
   width="80"
   height="80"
   id="svg5947"
   version="1.1"
   inkscape:version="0.48.3.1 r9886"
   inkscape:export-xdpi="576"
   inkscape:export-ydpi="576">
  <defs
     id="defs5949" />
  <sodipodi:namedview
     id="base"
     pagecolor="#ffffff"
     bordercolor="#666666"
     borderopacity="1.0"
     inkscape:pageopacity="0.0"
     inkscape:pageshadow="2"
     inkscape:zoom="1.979899"
     inkscape:cx="29.378351"
     inkscape:cy="34.800255"
     inkscape:document-units="px"
     inkscape:current-layer="User"
     showgrid="false"
     inkscape:snap-global="false"
     inkscape:window-width="753"
     inkscape:window-height="383"
     inkscape:window-x="819"
     inkscape:window-y="351"
     inkscape:window-maximized="0" />
  <metadata
     id="metadata5952">
    <rdf:RDF>
      <cc:Work
         rdf:about="">
        <dc:format>image/svg+xml</dc:format>
        <dc:type
           rdf:resource="http://purl.org/dc/dcmitype/StillImage" />
        <dc:title />
      </cc:Work>
    </rdf:RDF>
  </metadata>
  <g
     inkscape:label="Layer 1"
     inkscape:groupmode="layer"
     id="layer1"
     transform="translate(0,-972.3622)">
    <g
       transform="translate(-172.78441,627.1682)"
       id="User">
      <g
         transform="translate(-296.99359,-54.298)"
         id="Close_x2F_Clear_x2F_Cancel"
         style="opacity:0.50000000000000000;fill:#ffffff;fill-opacity:1">
        <g
           id="g704"
           style="fill:#ffffff;fill-opacity:1">
          <path
             style="fill:#ffffff;fill-opacity:1"
             inkscape:connector-curvature="0"
             d="m 514.172,439.484 4.041,-4.041 c 0.26,-0.26 0.404,-0.605 0.404,-0.975 0,-0.371 -0.143,-0.717 -0.404,-0.977 l -2.441,-2.443 c -0.521,-0.521 -1.434,-0.52 -1.949,0 l -4.044,4.043 -4.043,-4.043 c -0.52,-0.52 -1.429,-0.52 -1.949,0 l -2.443,2.443 c -0.26,0.26 -0.402,0.605 -0.402,0.975 0,0.37 0.143,0.717 0.402,0.977 l 4.043,4.041 -4.041,4.041 c -0.261,0.26 -0.404,0.605 -0.404,0.975 0,0.371 0.143,0.717 0.402,0.979 l 2.444,2.443 c 0.521,0.52 1.429,0.52 1.95,-0.002 l 4.041,-4.041 4.042,4.041 c 0.26,0.26 0.605,0.404 0.975,0.404 0.37,0 0.715,-0.145 0.975,-0.404 l 2.441,-2.439 c 0.262,-0.262 0.406,-0.609 0.406,-0.98 0,-0.369 -0.145,-0.717 -0.404,-0.973 l -4.042,-4.044 z"
             id="path706" />
          <path
             style="fill:#ffffff;fill-opacity:1"
             inkscape:connector-curvature="0"
             d="m 509.778,425.027 c 7.976,0 14.464,6.488 14.464,14.465 0,7.975 -6.488,14.463 -14.464,14.463 -7.975,0 -14.464,-6.488 -14.464,-14.463 0,-7.976 6.489,-14.465 14.464,-14.465 m 0,-8.035 c -12.426,0 -22.5,10.073 -22.5,22.5 0,12.426 10.074,22.5 22.5,22.5 12.427,0 22.5,-10.074 22.5,-22.5 -10e-4,-12.428 -10.073,-22.5 -22.5,-22.5 l 0,0 z"
             id="path708" />
        </g>
      </g>
    </g>
  </g>
</svg>
