<?xml version="1.0" encoding="UTF-8" standalone="no"?>
<!-- Created with Inkscape (http://www.inkscape.org/) -->

<svg
   xmlns:dc="http://purl.org/dc/elements/1.1/"
   xmlns:cc="http://creativecommons.org/ns#"
   xmlns:rdf="http://www.w3.org/1999/02/22-rdf-syntax-ns#"
   xmlns:svg="http://www.w3.org/2000/svg"
   xmlns="http://www.w3.org/2000/svg"
   xmlns:sodipodi="http://sodipodi.sourceforge.net/DTD/sodipodi-0.dtd"
   xmlns:inkscape="http://www.inkscape.org/namespaces/inkscape"
   width="80"
   height="80"
   id="svg5947"
   version="1.1"
   inkscape:version="0.48.3.1 r9886">
  <defs
     id="defs5949" />
  <sodipodi:namedview
     id="base"
     pagecolor="#ffffff"
     bordercolor="#666666"
     borderopacity="1.0"
     inkscape:pageopacity="0.0"
     inkscape:pageshadow="2"
     inkscape:zoom="2.95"
     inkscape:cx="40"
     inkscape:cy="40"
     inkscape:document-units="px"
     inkscape:current-layer="User"
     showgrid="false"
     inkscape:snap-global="false"
     inkscape:window-width="753"
     inkscape:window-height="383"
     inkscape:window-x="779"
     inkscape:window-y="193"
     inkscape:window-maximized="0" />
  <metadata
     id="metadata5952">
    <rdf:RDF>
      <cc:Work
         rdf:about="">
        <dc:format>image/svg+xml</dc:format>
        <dc:type
           rdf:resource="http://purl.org/dc/dcmitype/StillImage" />
        <dc:title></dc:title>
      </cc:Work>
    </rdf:RDF>
  </metadata>
  <g
     inkscape:label="Layer 1"
     inkscape:groupmode="layer"
     id="layer1"
     transform="translate(0,-972.3622)">
    <g
       transform="translate(-172.78441,627.1682)"
       id="User">
      <g
         transform="translate(-177.86932,-114.793)"
         id="Folder"
         style="fill:#ffffff;fill-opacity:1;opacity:0.3">
        <path
           style="fill:#ffffff;fill-opacity:1"
           inkscape:connector-curvature="0"
           d="m 378.923,493.986 c -1.41,0 -2.684,1.188 -2.781,2.594 l -0.932,12.574 c -0.059,0.787 -0.717,1.389 -1.495,1.389 -0.037,0 -0.075,-0.002 -0.112,-0.004 -0.826,-0.063 -1.446,-0.781 -1.385,-1.607 l 0.932,-12.566 c 0.205,-2.963 2.796,-5.379 5.773,-5.379 h 28.369 c 0,-0.465 0,-0.873 0,-1.031 0,-1.635 -1.654,-2.973 -3.309,-2.973 h -17.744 c 0,0 0,-1.193 0,-2.543 0,-1.35 -1.354,-2.453 -3.008,-2.453 h -12.07 c -1.654,0 -3.008,1.35 -3.008,3 v 30 c 0,1.65 1.354,3 3.008,3 h 37.098 c 1.655,0 3.122,-1.346 3.262,-2.99 l 1.623,-19.021 c 0.065,-0.766 -0.177,-1.459 -0.612,-1.988 h -33.609 z"
           id="path837" />
      </g>
    </g>
  </g>
</svg>
